<svg width="494" height="20" xmlns="http://www.w3.org/2000/svg" xmlns:xlink="http://www.w3.org/1999/xlink" xmlns:svgjs="http://svgjs.com/svgjs" viewBox="1100 358 494 20"><svg x="1100" y="358" width="494" height="11" overflow="visible"><svg width="494" height="11" xmlns="http://www.w3.org/2000/svg" xmlns:xlink="http://www.w3.org/1999/xlink" xmlns:svgjs="http://svgjs.com/svgjs" viewBox="0 0.49 494 10.02"><svg xmlns="http://www.w3.org/2000/svg" xmlns:xlink="http://www.w3.org/1999/xlink" width="494" height="11" viewBox="2 2 493 10" fill="#4b9ce8"><path fill="#4B9CE8" paint-order="stroke fill markers" fill-rule="evenodd" d="M6 2h485a4 4 0 0 1 4 4v2a4 4 0 0 1-4 4H6a4 4 0 0 1-4-4V6a4 4 0 0 1 4-4z"/></svg></svg></svg><svg x="1530" y="368" width="19" height="10" overflow="visible"><svg width="19" height="10" xmlns="http://www.w3.org/2000/svg" xmlns:xlink="http://www.w3.org/1999/xlink" xmlns:svgjs="http://svgjs.com/svgjs" viewBox="0 0.25 19 9.5"><svg xmlns="http://www.w3.org/2000/svg" xmlns:xlink="http://www.w3.org/1999/xlink" width="19" height="10" viewBox="2 1 18 9" fill="#4b9ce8"><path fill="#4B9CE8" paint-order="stroke fill markers" fill-rule="evenodd" d="M2 1l9 9 9-9H2z"/></svg></svg></svg><svg x="1282" y="360" width="136" height="11" overflow="visible"><svg width="136" height="11" xmlns="http://www.w3.org/2000/svg" xmlns:svgjs="http://svgjs.com/svgjs" viewBox="1282 360 136 11"><text font-family="Raleway-ExtraBold,AdobeInvisFont,MyriadPro-Regular" font-size="46" fill="#fff" x="1282" y="341.203" svgjs:data="{&quot;leading&quot;:&quot;1.3&quot;}"><tspan dy="59.8" x="1282" svgjs:data="{&quot;newLined&quot;:true}">посмо</tspan><tspan dy="59.8" x="1282" svgjs:data="{&quot;newLined&quot;:true}">треть </tspan><tspan dy="59.8" x="1282" svgjs:data="{&quot;newLined&quot;:true}">списо</tspan><tspan dy="59.8" x="1282" svgjs:data="{&quot;newLined&quot;:true}">к</tspan></text></svg></svg></svg>