<?xml version="1.0" encoding="utf-8"?>
<!-- Generator: Adobe Illustrator 19.2.0, SVG Export Plug-In . SVG Version: 6.00 Build 0)  -->
<svg version="1.1" id="Слой_1" xmlns="http://www.w3.org/2000/svg" xmlns:xlink="http://www.w3.org/1999/xlink" x="0px" y="0px"
     viewBox="0 0 200 277.6" style="enable-background:new 0 0 200 277.6;" xml:space="preserve">
<style type="text/css">
	.st0{fill:#22313B;}
</style>
<g>
	<path class="st0" d="M25.9,218.5c0-33.4,0-66.2,0-99c0.6-0.1,1.2-0.2,1.9-0.3c0.7,3,1.9,6.1,1.9,9.1c0.1,27.5,0.1,55,0.1,82.5
		c0,10.4,2.1,20.2,8.7,28.6c3.8,4.8,8.6,8,15.6,7.8c0-35.4,0-70.4,0-105.4c0.6-0.1,1.1-0.2,1.7-0.3c0.7,3.9,2.1,7.8,2.1,11.7
		c0.2,28.7,0,57.3,0.1,86c0,10.9,2.6,21.2,9.8,29.7c3.6,4.3,7.9,7.3,14.3,7.2c0-7.3,0.1-14.3,0-21.3c-0.3-32,0-64-1.2-95.9
		c-1.1-28-15.3-48.3-40.6-60.6c-4.9-2.4-9.9-4.8-14.8-7.2c0.1-0.2,0.1-0.3,0.2-0.5c3.8,0.9,7.7,1.7,10.1,2.2
		c7.4-7.1,13.9-13.6,20.2-19.6c-3.1-6.7-6.4-13.7-9.7-20.8C34.6,54.1,15.9,64.1,8.3,73C4,78,1.6,83.6,1.6,90.3
		c0.1,30.7,0,61.3,0.1,92c0,8.8,1.6,17.2,6.3,24.9C11.7,213.6,17,217.9,25.9,218.5z"/>
        <path class="st0" d="M157.9,218.5c6.7-0.3,11.5-3,15.3-7.5c5.5-6.7,8.5-14.5,8.6-23c0.4-33.2,0.4-66.3,0.3-99.5
		c0-3.8-1.4-8.1-3.6-11.2c-9.9-14.7-25.5-20.4-40.8-25.2c-3.6,7.7-6.9,14.7-9.9,21.1c6.4,6.2,13,12.7,20.2,19.7
		c2.6-0.6,6.5-1.4,10.3-2.3c-3.5,2.3-7.2,4-10.8,5.7c-20.7,9.9-37,23.9-42.2,47.5c-1.9,8.6-3.2,17.4-3.3,26.2
		c-0.4,34.5-0.3,69-0.3,103.5c0,0.9,0.2,1.9,0.4,3c7.5-0.7,12.5-4.9,16.3-10.6c5.4-8.2,7.4-17.4,7.4-27.1c0-28.7-0.1-57.3,0.1-86
		c0-3.8,1.5-7.6,2.3-11.4c0.6,0.1,1.1,0.2,1.7,0.4c0,35.1,0,70.3,0,105.6c9.1-0.5,14.6-5.7,18.5-12.9c4.2-7.6,5.5-15.9,5.5-24.6
		c-0.1-27.3-0.1-54.7,0.1-82c0-2.9,1.3-5.9,2-8.8c0.6,0.1,1.2,0.3,1.8,0.4C157.9,152.3,157.9,185,157.9,218.5z"/>
        <path class="st0" d="M65.7,27.2c0,14.9,11.3,26.3,26.1,26.4c14.7,0,26.2-11.5,26.2-26.3c0-14.5-11.4-26-25.9-26.1
		C77.4,0.9,65.8,12.4,65.7,27.2z"/>
        <path class="st0" d="M25.9,218.5c-8.9-0.5-14.3-4.9-18.2-11.3c-4.7-7.6-6.2-16.1-6.3-24.9c-0.1-30.7,0-61.3-0.1-92
		C1.3,83.6,3.7,78,8,73c7.6-8.9,26.3-19,38-20.6c3.3,7.1,6.6,14.1,9.7,20.8c-6.2,6-12.8,12.4-20.2,19.6c-2.4-0.5-6.2-1.4-10.1-2.2
		c-0.1,0.2-0.1,0.3-0.2,0.5c4.9,2.4,9.9,4.8,14.8,7.2c25.2,12.4,39.5,32.6,40.6,60.6c1.2,31.9,0.9,64,1.2,95.9c0.1,7,0,14,0,21.3
		c-6.3,0.1-10.7-3-14.3-7.2c-7.2-8.6-9.8-18.8-9.8-29.7c-0.1-28.7,0.1-57.3-0.1-86c0-3.9-1.4-7.8-2.1-11.7c-0.6,0.1-1.1,0.2-1.7,0.3
		c0,35,0,70.1,0,105.4c-7,0.2-11.8-3-15.6-7.8c-6.6-8.4-8.7-18.2-8.7-28.6c0-27.5,0.1-55-0.1-82.5c0-3-1.2-6.1-1.9-9.1
		c-0.6,0.1-1.2,0.2-1.9,0.3C25.9,152.3,25.9,185.1,25.9,218.5z"/>
        <path class="st0" d="M157.9,218.5c0-33.5,0-66.2,0-98.9c-0.6-0.1-1.2-0.3-1.8-0.4c-0.7,2.9-2,5.9-2,8.8c-0.2,27.3-0.1,54.7-0.1,82
		c0,8.6-1.3,17-5.5,24.6c-3.9,7.2-9.4,12.4-18.5,12.9c0-35.4,0-70.5,0-105.6c-0.6-0.1-1.1-0.2-1.7-0.4c-0.8,3.8-2.3,7.6-2.3,11.4
		c-0.2,28.7-0.1,57.3-0.1,86c0,9.7-2,18.9-7.4,27.1c-3.8,5.8-8.8,9.9-16.3,10.6c-0.2-1.2-0.4-2.1-0.4-3c0-34.5-0.1-69,0.3-103.5
		c0.1-8.7,1.5-17.6,3.3-26.2c5.2-23.5,21.4-37.6,42.2-47.5c3.7-1.7,7.3-3.4,10.8-5.7c-3.9,0.9-7.7,1.7-10.3,2.3
		c-7.2-7-13.8-13.4-20.2-19.7c3-6.5,6.3-13.5,9.9-21.1c15.3,4.9,30.9,10.5,40.8,25.2c2.1,3.1,3.5,7.4,3.6,11.2
		c0.2,33.2,0.1,66.3-0.3,99.5c-0.1,8.5-3.1,16.3-8.6,23C169.5,215.5,164.7,218.1,157.9,218.5z"/>
        <path class="st0" d="M65.7,27.2c0-14.7,11.7-26.3,26.4-26.1C106.6,1.3,118,12.7,118,27.2c0,14.8-11.4,26.3-26.2,26.3
		S65.7,42.1,65.7,27.2z"/>
</g>
</svg>
